<?xml version="1.0" encoding="UTF-8"?>
<!--Generator: Apple Native CoreSVG 232.5-->
<!DOCTYPE svg
PUBLIC "-//W3C//DTD SVG 1.1//EN"
       "http://www.w3.org/Graphics/SVG/1.1/DTD/svg11.dtd">
<svg version="1.1" xmlns="http://www.w3.org/2000/svg" xmlns:xlink="http://www.w3.org/1999/xlink" width="18.5508" height="17.2739">
 <g>
  <rect height="17.2739" opacity="0" width="18.5508" x="0" y="0"/>
  <path d="M0 5.86838C0 9.81761 3.64804 13.6914 8.81837 17.1086C8.95314 17.1934 9.13361 17.2739 9.27541 17.2739C9.41721 17.2739 9.59768 17.1934 9.72815 17.1086C14.9028 13.6914 18.5508 9.81761 18.5508 5.86838C18.5508 2.67853 16.3465 0.391805 13.3863 0.391805C11.6781 0.391805 10.0516 1.35664 9.27541 2.86484C8.5047 1.35938 6.87268 0.391805 5.16447 0.391805C2.2043 0.391805 0 2.67853 0 5.86838ZM0.72855 5.86838C0.72855 3.06683 2.6051 1.11332 5.159 1.11332C6.93869 1.11332 8.16915 2.21372 8.88555 3.52073C9.02267 3.74965 9.1254 3.82895 9.27541 3.82895C9.42541 3.82895 9.52268 3.74691 9.65823 3.52073C10.3953 2.21919 11.6078 1.11332 13.3918 1.11332C15.9457 1.11332 17.8223 3.06683 17.8223 5.86838C17.8223 9.56448 14.0266 13.375 9.41018 16.4555C9.35471 16.4957 9.31447 16.5235 9.27541 16.5235C9.23635 16.5235 9.19611 16.4957 9.14337 16.4555C4.52425 13.375 0.72855 9.56448 0.72855 5.86838Z" fill="#000000"/>
 </g>
</svg>
