<?xml version="1.0" encoding="UTF-8"?>
<!--Generator: Apple Native CoreSVG 232.5-->
<!DOCTYPE svg
PUBLIC "-//W3C//DTD SVG 1.1//EN"
       "http://www.w3.org/Graphics/SVG/1.1/DTD/svg11.dtd">
<svg version="1.1" xmlns="http://www.w3.org/2000/svg" xmlns:xlink="http://www.w3.org/1999/xlink" width="20.775" height="16.1004">
 <g>
  <rect height="16.1004" opacity="0" width="20.775" x="0" y="0"/>
  <path d="M2.63049 16.1004L18.2055 16.1004C19.8719 16.1004 20.775 15.1762 20.775 13.4738L20.775 2.65744C20.775 0.957816 19.8762 0.0335932 18.1445 0.0335932L2.56954 0.0335932C0.90313 0.0335932 0 0.933988 0 2.65744L0 13.4738C0 15.2 0.905864 16.1004 2.63049 16.1004ZM2.6422 15.3867C1.37034 15.3867 0.706673 14.7285 0.706673 13.4527L0.706673 2.67853C0.706673 1.40549 1.37034 0.747297 2.6422 0.747297L18.1399 0.747297C19.3641 0.747297 20.0684 1.40549 20.0684 2.68126L20.0684 13.4555C20.0684 14.7285 19.3641 15.3867 18.1399 15.3867ZM10.4492 10.2618C10.9711 10.2618 11.5508 10.0489 12.1289 9.49455L20.2836 1.54691L19.7742 1.03477L11.666 8.975C11.2531 9.38789 10.809 9.54531 10.4492 9.54531C10.0938 9.54531 9.64259 9.37812 9.23947 8.975L1.12034 1.03087L0.608211 1.543L8.77656 9.49455C9.35469 10.0489 9.93165 10.2618 10.4492 10.2618ZM19.6555 15.1164L20.1438 14.5902L13.3473 8.06876L12.8379 8.55706ZM0.709774 14.6422L1.18402 15.1824L8.06759 8.55706L7.55546 8.06876Z" fill="#ffffff" fill-opacity="0.85"/>
 </g>
</svg>
