<?xml version="1.0" encoding="UTF-8"?>
<!--Generator: Apple Native CoreSVG 232.5-->
<!DOCTYPE svg
PUBLIC "-//W3C//DTD SVG 1.1//EN"
       "http://www.w3.org/Graphics/SVG/1.1/DTD/svg11.dtd">
<svg version="1.1" xmlns="http://www.w3.org/2000/svg" xmlns:xlink="http://www.w3.org/1999/xlink" width="17.7949" height="19.4121">
 <g>
  <rect height="19.4121" opacity="0" width="17.7949" x="0" y="0"/>
  <path d="M0 15.691C0 16.0805 0.272667 16.3313 0.694172 16.3313L5.96834 16.3313C6.00428 18.0895 7.20469 19.4024 8.89962 19.4024C10.5903 19.4024 11.7907 18.0922 11.8266 16.3313L17.1008 16.3313C17.5195 16.3313 17.7949 16.0805 17.7949 15.691C17.7949 14.7004 16.8973 13.8707 16.1207 13.0086C15.1246 11.9059 15.1668 9.6684 14.8848 7.58211C14.6055 4.90863 13.6305 2.88517 11.3 2.25C11.0946 0.900395 10.1481 0 8.89962 0C7.64688 0 6.69766 0.900395 6.49492 2.25C4.16444 2.88517 3.18944 4.90863 2.91015 7.58211C2.62813 9.6684 2.6703 11.9059 1.67423 13.0086C0.894926 13.8707 0 14.7004 0 15.691ZM0.839887 15.6301L0.839887 15.5269C0.88208 14.9976 1.62973 14.1473 2.25004 13.4965C3.38205 12.3074 3.31332 9.92975 3.6262 7.695C3.95041 4.91799 4.87542 3.44807 6.60862 2.98206C6.94417 2.88831 7.13713 2.76409 7.18205 2.45394C7.30275 1.47346 7.90275 0.697296 8.89962 0.697296C9.8922 0.697296 10.4895 1.47346 10.6129 2.45394C10.6578 2.76409 10.848 2.88831 11.1836 2.98206C12.9195 3.44807 13.8445 4.91799 14.1687 7.695C14.4816 9.92975 14.4129 12.3074 15.5422 13.4965C16.1652 14.1473 16.9101 14.9976 16.9523 15.5269L16.9523 15.6301ZM6.68322 16.3313L11.1117 16.3313C11.0336 17.793 10.1305 18.7355 8.89962 18.7355C7.66447 18.7355 6.75861 17.793 6.68322 16.3313Z" fill="#ffffff" fill-opacity="0.85"/>
 </g>
</svg>
