<?xml version="1.0" encoding="UTF-8"?>
<!--Generator: Apple Native CoreSVG 232.5-->
<!DOCTYPE svg
PUBLIC "-//W3C//DTD SVG 1.1//EN"
       "http://www.w3.org/Graphics/SVG/1.1/DTD/svg11.dtd">
<svg version="1.1" xmlns="http://www.w3.org/2000/svg" xmlns:xlink="http://www.w3.org/1999/xlink" width="18.1348" height="14.252">
 <g>
  <rect height="14.252" opacity="0" width="18.1348" x="0" y="0"/>
  <path d="M0 7.12111C0 7.23166 0.0441432 7.31565 0.119929 7.39573L6.8082 14.1235C6.89102 14.2035 6.97657 14.2422 7.08439 14.2422C7.30276 14.2422 7.45863 14.0735 7.45863 13.8734C7.45863 13.7656 7.42698 13.6578 7.36214 13.5957L3.45908 9.68873L0.829344 7.15471L0.72973 7.42932L3.26257 7.49105L17.7676 7.49105C17.973 7.49105 18.1348 7.33362 18.1348 7.12111C18.1348 6.90156 17.973 6.75116 17.7676 6.75116L3.26257 6.75116L0.72973 6.81289L0.829344 7.09024L3.45908 4.55348L7.36214 0.646517C7.43402 0.567608 7.45863 0.476587 7.45863 0.368769C7.45863 0.161726 7.30276 0 7.08439 0C6.97657 0 6.86993 0.0359392 6.71836 0.201566L0.119929 6.84648C0.0441432 6.91953 0 7.01055 0 7.12111Z" fill="#000000"/>
 </g>
</svg>
